<svg width="452" height="318" viewBox="28 18 452 318" fill="none" xmlns="http://www.w3.org/2000/svg">
<g id="card_vertical_reversivel">
<rect x="28" y="18" width="452" height="318" rx="16" fill="url(#paint0_linear_2052_2329)"/>
<g id="fluent:document-signature-32-regular" clip-path="url(#clip0_2052_2329)">
<g id="Vector" filter="url(#filter1_d_2052_2329)">
<path d="M215.5 95.5C215.5 92.7152 216.606 90.0445 218.575 88.0754C220.545 86.1062 223.215 85 226 85H261.602C264.385 85.0015 267.054 86.1081 269.022 88.0765L289.427 108.474C290.243 109.29 290.911 110.228 291.411 111.246C288.849 111.208 286.318 111.81 284.048 112.996L264.5 93.449V109.5C264.5 110.428 264.869 111.318 265.525 111.975C266.181 112.631 267.072 113 268 113H284.044C282.659 113.73 281.394 114.667 280.292 115.779L276.106 120H268C265.215 120 262.545 118.894 260.575 116.925C258.606 114.955 257.5 112.285 257.5 109.5V92H226C225.072 92 224.182 92.3687 223.525 93.0251C222.869 93.6815 222.5 94.5717 222.5 95.5V172.5C222.5 173.428 222.869 174.318 223.525 174.975C224.182 175.631 225.072 176 226 176H282C282.928 176 283.818 175.631 284.475 174.975C285.131 174.318 285.5 173.428 285.5 172.5V153.807L292.5 146.862V172.5C292.5 175.285 291.394 177.955 289.425 179.925C287.455 181.894 284.785 183 282 183H226C223.215 183 220.545 181.894 218.575 179.925C216.606 177.955 215.5 175.285 215.5 172.5V95.5ZM268.13 163.634L298.275 133.734C299.231 132.802 299.993 131.69 300.516 130.461C301.04 129.233 301.313 127.912 301.322 126.577C301.331 125.242 301.074 123.918 300.567 122.683C300.06 121.448 299.313 120.325 298.369 119.381C297.425 118.437 296.302 117.69 295.067 117.183C293.832 116.676 292.508 116.419 291.173 116.428C289.838 116.437 288.517 116.71 287.289 117.234C286.06 117.757 284.948 118.519 284.016 119.475L254.021 149.715C252.861 150.883 252.031 152.339 251.617 153.932L249.53 162H229.5C228.572 162 227.682 162.369 227.025 163.025C226.369 163.682 226 164.572 226 165.5C226 166.428 226.369 167.318 227.025 167.975C227.682 168.631 228.572 169 229.5 169H252.25C252.651 168.998 253.032 168.934 253.391 168.807L263.685 166.161C265.364 165.727 266.898 164.855 268.13 163.634Z" fill="white"/>
</g>
</g>
<g id="nrk:rotate" filter="url(#filter2_d_2052_2329)">
<rect x="433" y="30" width="32" height="32" rx="16" fill="white"/>
<path id="Vector_2" d="M444.255 42.5837L447.372 43.1522H447.38L445.887 44.6889L441.734 43.9339L441 39.6614L442.494 38.1336L443.038 41.3402L444.005 40.3453C444.725 39.6019 445.581 39.0121 446.523 38.6096C447.465 38.2072 448.475 38 449.496 38C450.516 38 451.526 38.2072 452.468 38.6096C453.411 39.0121 454.267 39.6019 454.987 40.3453C455.021 40.3814 455.052 40.4185 455.082 40.4564C455.111 40.4948 455.143 40.5319 455.177 40.5674C455.306 40.7095 455.436 40.8605 455.557 41.0115C455.634 41.1092 455.712 41.2158 455.79 41.3224C455.928 41.5178 456.049 41.7132 456.17 41.9175L456.202 41.9682C456.221 41.996 456.239 42.0265 456.256 42.0597C456.415 42.3522 456.557 42.6548 456.679 42.9657L456.696 43.0101C456.998 43.7917 457.18 44.6001 457.24 45.4261L455.479 45.1685C455.391 44.5218 455.208 43.8928 454.935 43.3032L454.883 43.1966C454.756 42.9379 454.612 42.6885 454.451 42.4505C454.437 42.4333 454.422 42.4141 454.408 42.3927C454.217 42.1049 454 41.8358 453.761 41.5889C452.628 40.4243 451.093 39.7701 449.491 39.7701C447.89 39.7701 446.354 40.4243 445.222 41.5889L444.255 42.5837ZM453.105 47.3003L457.257 48.0554L457.266 48.0642L458 52.3367L456.506 53.8734L455.954 50.6668L454.987 51.6617C451.948 54.7794 447.026 54.7794 443.996 51.6617L443.789 51.4218C442.589 50.0923 441.867 48.3813 441.743 46.572L443.504 46.8296C443.676 48.1353 444.246 49.3966 445.222 50.4004C445.421 50.6047 445.636 50.7912 445.852 50.96C448.218 52.7986 451.602 52.621 453.761 50.4004L454.728 49.4055L451.611 48.837L453.105 47.3003Z" fill="#0E2F53"/>
</g>
<g id="title_card_reversivel" filter="url(#filter3_d_2052_2329)">
<rect x="166" y="212" width="176" height="53" rx="26.5" fill="white" shape-rendering="crispEdges"/>
<path id="Title" d="M212.286 246L219.216 230.6H222.032L228.984 246H225.992L220.03 232.118H221.174L215.234 246H212.286ZM215.476 242.436L216.246 240.192H224.562L225.332 242.436H215.476ZM235.435 246.154C234.438 246.154 233.558 245.971 232.795 245.604C232.033 245.223 231.439 244.651 231.013 243.888C230.588 243.111 230.375 242.135 230.375 240.962V234.252H233.125V240.588C233.125 241.644 233.36 242.436 233.829 242.964C234.313 243.477 234.995 243.734 235.875 243.734C236.521 243.734 237.078 243.602 237.547 243.338C238.031 243.074 238.405 242.678 238.669 242.15C238.948 241.622 239.087 240.969 239.087 240.192V234.252H241.837V246H239.219V242.832L239.681 243.8C239.285 244.563 238.706 245.149 237.943 245.56C237.181 245.956 236.345 246.154 235.435 246.154ZM249.86 246.154C248.569 246.154 247.572 245.824 246.868 245.164C246.164 244.489 245.812 243.499 245.812 242.194V231.656H248.562V242.128C248.562 242.685 248.701 243.118 248.98 243.426C249.273 243.734 249.676 243.888 250.19 243.888C250.806 243.888 251.319 243.727 251.73 243.404L252.5 245.362C252.177 245.626 251.781 245.824 251.312 245.956C250.842 246.088 250.358 246.154 249.86 246.154ZM243.876 236.452V234.252H251.708V236.452H243.876ZM259.655 246.154C258.453 246.154 257.382 245.897 256.443 245.384C255.505 244.856 254.764 244.137 254.221 243.228C253.679 242.319 253.407 241.285 253.407 240.126C253.407 238.953 253.679 237.919 254.221 237.024C254.764 236.115 255.505 235.403 256.443 234.89C257.382 234.377 258.453 234.12 259.655 234.12C260.873 234.12 261.951 234.377 262.889 234.89C263.843 235.403 264.583 236.107 265.111 237.002C265.654 237.897 265.925 238.938 265.925 240.126C265.925 241.285 265.654 242.319 265.111 243.228C264.583 244.137 263.843 244.856 262.889 245.384C261.951 245.897 260.873 246.154 259.655 246.154ZM259.655 243.8C260.33 243.8 260.931 243.653 261.459 243.36C261.987 243.067 262.398 242.641 262.691 242.084C262.999 241.527 263.153 240.874 263.153 240.126C263.153 239.363 262.999 238.711 262.691 238.168C262.398 237.611 261.987 237.185 261.459 236.892C260.931 236.599 260.337 236.452 259.677 236.452C259.003 236.452 258.401 236.599 257.873 236.892C257.36 237.185 256.949 237.611 256.641 238.168C256.333 238.711 256.179 239.363 256.179 240.126C256.179 240.874 256.333 241.527 256.641 242.084C256.949 242.641 257.36 243.067 257.873 243.36C258.401 243.653 258.995 243.8 259.655 243.8ZM268.555 246V234.252H271.173V237.486L270.865 236.54C271.217 235.748 271.767 235.147 272.515 234.736C273.278 234.325 274.224 234.12 275.353 234.12V236.738C275.236 236.709 275.126 236.694 275.023 236.694C274.92 236.679 274.818 236.672 274.715 236.672C273.674 236.672 272.845 236.98 272.229 237.596C271.613 238.197 271.305 239.099 271.305 240.302V246H268.555ZM277.686 246V234.252H280.436V246H277.686ZM279.072 232.316C278.559 232.316 278.133 232.155 277.796 231.832C277.473 231.509 277.312 231.121 277.312 230.666C277.312 230.197 277.473 229.808 277.796 229.5C278.133 229.177 278.559 229.016 279.072 229.016C279.585 229.016 280.003 229.17 280.326 229.478C280.663 229.771 280.832 230.145 280.832 230.6C280.832 231.084 280.671 231.495 280.348 231.832C280.025 232.155 279.6 232.316 279.072 232.316ZM291.283 246V243.624L291.129 243.118V238.96C291.129 238.153 290.887 237.53 290.403 237.09C289.919 236.635 289.186 236.408 288.203 236.408C287.543 236.408 286.891 236.511 286.245 236.716C285.615 236.921 285.079 237.207 284.639 237.574L283.561 235.572C284.192 235.088 284.94 234.729 285.805 234.494C286.685 234.245 287.595 234.12 288.533 234.12C290.235 234.12 291.547 234.531 292.471 235.352C293.41 236.159 293.879 237.413 293.879 239.114V246H291.283ZM287.587 246.154C286.707 246.154 285.937 246.007 285.277 245.714C284.617 245.406 284.104 244.988 283.737 244.46C283.385 243.917 283.209 243.309 283.209 242.634C283.209 241.974 283.363 241.38 283.671 240.852C283.994 240.324 284.515 239.906 285.233 239.598C285.952 239.29 286.905 239.136 288.093 239.136H291.503V240.962H288.291C287.353 240.962 286.722 241.116 286.399 241.424C286.077 241.717 285.915 242.084 285.915 242.524C285.915 243.023 286.113 243.419 286.509 243.712C286.905 244.005 287.455 244.152 288.159 244.152C288.834 244.152 289.435 243.998 289.963 243.69C290.506 243.382 290.895 242.927 291.129 242.326L291.591 243.976C291.327 244.665 290.851 245.201 290.161 245.582C289.487 245.963 288.629 246.154 287.587 246.154Z" fill="#0E497E"/>
</g>
</g>
<defs>
<filter id="filter1_d_2052_2329" x="211.5" y="85" width="93.8223" height="106" filterUnits="userSpaceOnUse" color-interpolation-filters="sRGB">
<feFlood flood-opacity="0" result="BackgroundImageFix"/>
<feColorMatrix in="SourceAlpha" type="matrix" values="0 0 0 0 0 0 0 0 0 0 0 0 0 0 0 0 0 0 127 0" result="hardAlpha"/>
<feOffset dy="4"/>
<feGaussianBlur stdDeviation="2"/>
<feComposite in2="hardAlpha" operator="out"/>
<feColorMatrix type="matrix" values="0 0 0 0 0 0 0 0 0 0 0 0 0 0 0 0 0 0 0.25 0"/>
<feBlend mode="normal" in2="BackgroundImageFix" result="effect1_dropShadow_2052_2329"/>
<feBlend mode="normal" in="SourceGraphic" in2="effect1_dropShadow_2052_2329" result="shape"/>
</filter>
<filter id="filter2_d_2052_2329" x="429" y="30" width="40" height="40" filterUnits="userSpaceOnUse" color-interpolation-filters="sRGB">
<feFlood flood-opacity="0" result="BackgroundImageFix"/>
<feColorMatrix in="SourceAlpha" type="matrix" values="0 0 0 0 0 0 0 0 0 0 0 0 0 0 0 0 0 0 127 0" result="hardAlpha"/>
<feOffset dy="4"/>
<feGaussianBlur stdDeviation="2"/>
<feComposite in2="hardAlpha" operator="out"/>
<feColorMatrix type="matrix" values="0 0 0 0 0.133333 0 0 0 0 0.152941 0 0 0 0 0.164706 0 0 0 0.15 0"/>
<feBlend mode="normal" in2="BackgroundImageFix" result="effect1_dropShadow_2052_2329"/>
<feBlend mode="normal" in="SourceGraphic" in2="effect1_dropShadow_2052_2329" result="shape"/>
</filter>
<filter id="filter3_d_2052_2329" x="162" y="212" width="184" height="61" filterUnits="userSpaceOnUse" color-interpolation-filters="sRGB">
<feFlood flood-opacity="0" result="BackgroundImageFix"/>
<feColorMatrix in="SourceAlpha" type="matrix" values="0 0 0 0 0 0 0 0 0 0 0 0 0 0 0 0 0 0 127 0" result="hardAlpha"/>
<feOffset dy="4"/>
<feGaussianBlur stdDeviation="2"/>
<feComposite in2="hardAlpha" operator="out"/>
<feColorMatrix type="matrix" values="0 0 0 0 0.133333 0 0 0 0 0.152941 0 0 0 0 0.164706 0 0 0 0.15 0"/>
<feBlend mode="normal" in2="BackgroundImageFix" result="effect1_dropShadow_2052_2329"/>
<feBlend mode="normal" in="SourceGraphic" in2="effect1_dropShadow_2052_2329" result="shape"/>
</filter>
<linearGradient id="paint0_linear_2052_2329" x1="254" y1="18" x2="254" y2="336" gradientUnits="userSpaceOnUse">
<stop stop-color="#CFE0B6"/>
<stop offset="1" stop-color="#81A94F"/>
</linearGradient>
<clipPath id="clip0_2052_2329">
<rect width="112" height="112" fill="white" transform="translate(198 78)"/>
</clipPath>
</defs>
</svg>
