<svg width="350" height="200" viewBox="28 18 350 200" fill="none" xmlns="http://www.w3.org/2000/svg">
<g id="card3" filter="url(#filter0_dd_128_1066)">
<g clip-path="url(#clip0_128_1066)">
<rect x="28" y="18" width="350" height="200" rx="16" fill="url(#paint0_linear_128_1066)"/>
<g id="Object">
<g id="Group">
<path id="Vector" d="M104.679 17.0286C140.863 16.4468 172.994 34.8366 191.64 62.9746L196.789 59.8592C177.068 29.9565 142.977 10.4001 104.585 11.0141C44.862 11.9672 -2.93915 61.3324 -1.98599 121.055C-1.02797 180.771 48.3298 228.58 108.05 227.626C167.767 226.668 215.579 177.302 214.623 117.588C214.338 99.6972 209.68 82.8931 201.736 68.1343L196.578 71.2496C203.993 85.1228 208.339 100.899 208.606 117.684C209.509 174.086 164.353 220.71 107.95 221.607C51.5589 222.514 4.93229 177.358 4.0272 120.962C3.12873 64.5549 48.2817 17.931 104.679 17.0286Z" fill="#CFE0B6"/>
<path id="Vector_2" d="M105.154 46.8571C130.399 46.4513 152.816 59.0215 166.102 78.3936L186.814 65.8851C169.196 39.4152 138.925 22.1573 104.772 22.702C51.405 23.5563 8.84424 67.5056 9.70346 120.867C10.5578 174.226 54.5071 216.795 107.864 215.938C161.222 215.084 203.787 171.132 202.935 117.773C202.687 102.013 198.645 87.2058 191.742 74.1681L170.964 86.7171C175.75 96.1936 178.598 106.834 178.779 118.16C179.42 158.177 147.502 191.145 107.477 191.785C67.4593 192.426 34.5003 160.5 33.8515 120.48C33.2212 80.4596 65.1392 47.4975 105.154 46.8571Z" fill="#CFE0B6"/>
<path id="Vector_3" d="M105.541 71.0095C121.877 70.748 136.42 78.6494 145.363 90.9179L166.101 78.3927C152.816 59.0207 130.398 46.4504 105.154 46.8562C65.1391 47.4971 33.2206 80.4592 33.8505 120.479C34.4993 160.499 67.4583 192.425 107.476 191.785C147.501 191.144 179.419 158.176 178.778 118.159C178.597 106.833 175.749 96.1928 170.962 86.7163L150.242 99.2331C152.944 105.125 154.519 111.649 154.629 118.546C155.053 145.224 133.772 167.204 107.086 167.629C80.4162 168.059 58.4334 146.77 58.0091 120.094C57.5821 93.4087 78.868 71.4365 105.541 71.0095Z" fill="white"/>
<path id="Vector_4" d="M105.93 95.1652C113.354 95.0448 120.039 98.2912 124.55 103.486L145.364 90.9181C136.421 78.6496 121.878 70.7482 105.541 71.0097C78.8687 71.4367 57.5823 93.4089 58.0097 120.095C58.4341 146.77 80.4168 168.059 107.087 167.629C133.773 167.205 155.054 145.225 154.629 118.547C154.519 111.649 152.945 105.125 150.243 99.2337L129.304 111.881C130.022 114.108 130.43 116.473 130.468 118.934C130.684 132.273 120.047 143.26 106.7 143.477C93.366 143.69 82.3783 133.045 82.1622 119.708C81.954 106.364 92.5892 95.3761 105.93 95.1652Z" fill="#CFE0B6"/>
<path id="Vector_5" d="M109.518 112.564L124.55 103.486C120.038 98.2913 113.354 95.0449 105.93 95.1653C92.5885 95.3762 81.9538 106.363 82.1619 119.708C82.3781 133.045 93.3657 143.69 106.699 143.476C120.046 143.26 130.684 132.273 130.468 118.934C130.43 116.472 130.022 114.107 129.304 111.881L113.907 121.179C111.958 122.356 109.419 121.776 108.159 119.865L107.93 119.513C106.406 117.169 107.118 114.019 109.518 112.564Z" fill="white"/>
<path id="Vector_6" d="M245.002 58.327C245.966 58.8342 247.127 58.7998 248.05 58.2392L251.232 56.3196C251.713 56.0289 252.001 55.5001 251.979 54.9399C251.974 54.3767 251.648 53.8668 251.152 53.6052L236.43 45.8449L238.085 44.8494C238.435 44.6355 238.696 44.2831 238.79 43.8777C238.889 43.4772 238.817 43.045 238.595 42.6926L236.524 39.3664C236.07 38.6431 235.12 38.4185 234.388 38.8565L232.683 39.8869L232.325 23.414C232.312 22.864 232.007 22.3541 231.522 22.0873C231.036 21.8204 230.44 21.8284 229.965 22.1168L226.802 24.028C225.851 24.5992 225.283 25.6348 225.304 26.7428L225.686 44.1155L224.848 44.6307L224.479 28.1574C224.472 27.602 224.159 27.0926 223.673 26.8227C223.193 26.5611 222.595 26.5695 222.111 26.8575L218.948 28.7665C217.995 29.343 217.432 30.376 217.451 31.4839L217.838 48.8593L216.989 49.3718L216.621 32.8985C216.616 32.3405 216.306 31.8359 215.817 31.5664C215.34 31.2996 214.741 31.3049 214.258 31.5986L211.101 33.5072C210.15 34.0784 209.584 35.1171 209.606 36.222L209.937 51.0188C209.942 51.571 209.659 52.0866 209.194 52.3693L196.79 59.8597L191.64 62.975L186.814 65.8848L166.102 78.3933L145.364 90.9185L124.55 103.486L109.518 112.565C107.118 114.019 106.406 117.17 107.93 119.513L108.16 119.866C109.419 121.777 111.958 122.356 113.907 121.179L129.304 111.882L150.243 99.2341L170.963 86.7172L191.742 74.1682L196.579 71.2509L201.737 68.1356L214.131 60.6505C214.587 60.3705 215.164 60.3519 215.639 60.6051L229.309 67.8101C230.268 68.3173 231.426 68.2851 232.355 67.7192L235.537 65.7997C236.015 65.5116 236.3 64.9828 236.29 64.4222C236.271 63.8589 235.948 63.349 235.46 63.0901L220.733 55.3329L221.544 54.8447L237.16 63.069C238.121 63.5788 239.275 63.544 240.206 62.9812L243.385 61.0616C243.866 60.7652 244.154 60.2421 244.144 59.6762C244.128 59.1182 243.807 58.6084 243.311 58.3468L228.586 50.5918L229.39 50.1009L245.002 58.327Z" fill="#93B566"/>
</g>
</g>
<g id="nrk:rotate" filter="url(#filter1_d_128_1066)">
<rect x="328" y="32" width="32" height="32" rx="16" fill="white"/>
<path id="Vector_7" d="M339.255 44.5837L342.372 45.1522H342.38L340.887 46.6889L336.734 45.9339L336 41.6614L337.494 40.1336L338.038 43.3402L339.005 42.3453C339.725 41.6019 340.581 41.0121 341.523 40.6096C342.465 40.2072 343.475 40 344.496 40C345.516 40 346.526 40.2072 347.468 40.6096C348.411 41.0121 349.267 41.6019 349.987 42.3453C350.021 42.3814 350.052 42.4185 350.082 42.4564C350.111 42.4948 350.143 42.5319 350.177 42.5674C350.306 42.7095 350.436 42.8605 350.557 43.0115C350.634 43.1092 350.712 43.2158 350.79 43.3224C350.928 43.5178 351.049 43.7132 351.17 43.9175L351.202 43.9682C351.221 43.996 351.239 44.0265 351.256 44.0597C351.415 44.3522 351.557 44.6548 351.679 44.9657L351.696 45.0101C351.998 45.7917 352.18 46.6001 352.24 47.4261L350.479 47.1685C350.391 46.5218 350.208 45.8928 349.935 45.3032L349.883 45.1966C349.756 44.9379 349.612 44.6885 349.451 44.4505C349.437 44.4333 349.422 44.4141 349.408 44.3927C349.217 44.1049 349 43.8358 348.761 43.5889C347.628 42.4243 346.093 41.7701 344.491 41.7701C342.89 41.7701 341.354 42.4243 340.222 43.5889L339.255 44.5837ZM348.105 49.3003L352.257 50.0554L352.266 50.0642L353 54.3367L351.506 55.8734L350.954 52.6668L349.987 53.6617C346.948 56.7794 342.026 56.7794 338.996 53.6617L338.789 53.4218C337.589 52.0923 336.867 50.3813 336.743 48.572L338.504 48.8296C338.676 50.1353 339.246 51.3966 340.222 52.4004C340.421 52.6047 340.636 52.7912 340.852 52.96C343.218 54.7986 346.602 54.621 348.761 52.4004L349.728 51.4055L346.611 50.837L348.105 49.3003Z" fill="#0E2F53"/>
</g>
<g id="title_card_reversivel" filter="url(#filter2_d_128_1066)">
<rect x="115" y="92" width="176" height="53" rx="26.5" fill="white" shape-rendering="crispEdges"/>
<path id="Title" d="M164.331 126.22C163.128 126.22 162.021 126.022 161.009 125.626C159.997 125.23 159.117 124.68 158.369 123.976C157.621 123.257 157.042 122.421 156.631 121.468C156.22 120.5 156.015 119.444 156.015 118.3C156.015 117.156 156.22 116.107 156.631 115.154C157.042 114.186 157.621 113.35 158.369 112.646C159.117 111.927 159.997 111.37 161.009 110.974C162.021 110.578 163.121 110.38 164.309 110.38C165.512 110.38 166.612 110.578 167.609 110.974C168.621 111.37 169.501 111.927 170.249 112.646C170.997 113.35 171.576 114.186 171.987 115.154C172.398 116.107 172.603 117.156 172.603 118.3C172.603 119.444 172.398 120.5 171.987 121.468C171.576 122.436 170.997 123.272 170.249 123.976C169.501 124.68 168.621 125.23 167.609 125.626C166.612 126.022 165.519 126.22 164.331 126.22ZM164.309 123.712C165.086 123.712 165.805 123.58 166.465 123.316C167.125 123.052 167.697 122.678 168.181 122.194C168.665 121.695 169.039 121.123 169.303 120.478C169.582 119.818 169.721 119.092 169.721 118.3C169.721 117.508 169.582 116.789 169.303 116.144C169.039 115.484 168.665 114.912 168.181 114.428C167.697 113.929 167.125 113.548 166.465 113.284C165.805 113.02 165.086 112.888 164.309 112.888C163.532 112.888 162.813 113.02 162.153 113.284C161.508 113.548 160.936 113.929 160.437 114.428C159.953 114.912 159.572 115.484 159.293 116.144C159.029 116.789 158.897 117.508 158.897 118.3C158.897 119.077 159.029 119.796 159.293 120.456C159.572 121.116 159.953 121.695 160.437 122.194C160.921 122.678 161.493 123.052 162.153 123.316C162.813 123.58 163.532 123.712 164.309 123.712ZM181.882 126.154C180.885 126.154 179.998 125.934 179.22 125.494C178.443 125.054 177.827 124.394 177.372 123.514C176.932 122.619 176.712 121.49 176.712 120.126C176.712 118.747 176.94 117.618 177.394 116.738C177.864 115.858 178.487 115.205 179.264 114.78C180.056 114.34 180.929 114.12 181.882 114.12C183.041 114.12 184.06 114.369 184.94 114.868C185.835 115.367 186.539 116.063 187.052 116.958C187.58 117.853 187.844 118.909 187.844 120.126C187.844 121.343 187.58 122.399 187.052 123.294C186.539 124.189 185.835 124.893 184.94 125.406C184.06 125.905 183.041 126.154 181.882 126.154ZM175.37 126V109.676H178.12V116.98L177.9 120.104L177.988 123.228V126H175.37ZM181.574 123.8C182.234 123.8 182.821 123.653 183.334 123.36C183.862 123.067 184.28 122.641 184.588 122.084C184.896 121.527 185.05 120.874 185.05 120.126C185.05 119.363 184.896 118.711 184.588 118.168C184.28 117.611 183.862 117.185 183.334 116.892C182.821 116.599 182.234 116.452 181.574 116.452C180.914 116.452 180.32 116.599 179.792 116.892C179.264 117.185 178.846 117.611 178.538 118.168C178.23 118.711 178.076 119.363 178.076 120.126C178.076 120.874 178.23 121.527 178.538 122.084C178.846 122.641 179.264 123.067 179.792 123.36C180.32 123.653 180.914 123.8 181.574 123.8ZM189.114 130.422C188.6 130.422 188.116 130.363 187.662 130.246C187.192 130.143 186.796 129.975 186.474 129.74L187.266 127.694C187.691 128.002 188.226 128.156 188.872 128.156C189.37 128.156 189.759 127.995 190.038 127.672C190.316 127.364 190.456 126.902 190.456 126.286V114.252H193.206V126.22C193.206 127.511 192.846 128.53 192.128 129.278C191.424 130.041 190.419 130.422 189.114 130.422ZM191.82 112.316C191.306 112.316 190.881 112.155 190.544 111.832C190.221 111.509 190.06 111.121 190.06 110.666C190.06 110.197 190.221 109.808 190.544 109.5C190.881 109.177 191.306 109.016 191.82 109.016C192.333 109.016 192.751 109.17 193.074 109.478C193.411 109.771 193.58 110.145 193.58 110.6C193.58 111.084 193.418 111.495 193.096 111.832C192.773 112.155 192.348 112.316 191.82 112.316ZM202.334 126.154C201.028 126.154 199.884 125.897 198.902 125.384C197.934 124.856 197.178 124.137 196.636 123.228C196.108 122.319 195.844 121.285 195.844 120.126C195.844 118.953 196.1 117.919 196.614 117.024C197.142 116.115 197.86 115.403 198.77 114.89C199.694 114.377 200.742 114.12 201.916 114.12C203.06 114.12 204.079 114.369 204.974 114.868C205.868 115.367 206.572 116.071 207.086 116.98C207.599 117.889 207.856 118.96 207.856 120.192C207.856 120.309 207.848 120.441 207.834 120.588C207.834 120.735 207.826 120.874 207.812 121.006H198.022V119.18H206.36L205.282 119.752C205.296 119.077 205.157 118.483 204.864 117.97C204.57 117.457 204.167 117.053 203.654 116.76C203.155 116.467 202.576 116.32 201.916 116.32C201.241 116.32 200.647 116.467 200.134 116.76C199.635 117.053 199.239 117.464 198.946 117.992C198.667 118.505 198.528 119.114 198.528 119.818V120.258C198.528 120.962 198.689 121.585 199.012 122.128C199.334 122.671 199.789 123.089 200.376 123.382C200.962 123.675 201.637 123.822 202.4 123.822C203.06 123.822 203.654 123.719 204.182 123.514C204.71 123.309 205.179 122.986 205.59 122.546L207.064 124.24C206.536 124.856 205.868 125.333 205.062 125.67C204.27 125.993 203.36 126.154 202.334 126.154ZM214.919 126.154C213.629 126.154 212.631 125.824 211.927 125.164C211.223 124.489 210.871 123.499 210.871 122.194V111.656H213.621V122.128C213.621 122.685 213.761 123.118 214.039 123.426C214.333 123.734 214.736 123.888 215.249 123.888C215.865 123.888 216.379 123.727 216.789 123.404L217.559 125.362C217.237 125.626 216.841 125.824 216.371 125.956C215.902 126.088 215.418 126.154 214.919 126.154ZM208.935 116.452V114.252H216.767V116.452H208.935ZM219.822 126V114.252H222.572V126H219.822ZM221.208 112.316C220.694 112.316 220.269 112.155 219.932 111.832C219.609 111.509 219.448 111.121 219.448 110.666C219.448 110.197 219.609 109.808 219.932 109.5C220.269 109.177 220.694 109.016 221.208 109.016C221.721 109.016 222.139 109.17 222.462 109.478C222.799 109.771 222.968 110.145 222.968 110.6C222.968 111.084 222.806 111.495 222.484 111.832C222.161 112.155 221.736 112.316 221.208 112.316ZM229.305 126L224.267 114.252H227.127L231.461 124.614H230.053L234.541 114.252H237.181L232.143 126H229.305ZM243.857 126.154C242.655 126.154 241.584 125.897 240.645 125.384C239.707 124.856 238.966 124.137 238.423 123.228C237.881 122.319 237.609 121.285 237.609 120.126C237.609 118.953 237.881 117.919 238.423 117.024C238.966 116.115 239.707 115.403 240.645 114.89C241.584 114.377 242.655 114.12 243.857 114.12C245.075 114.12 246.153 114.377 247.091 114.89C248.045 115.403 248.785 116.107 249.313 117.002C249.856 117.897 250.127 118.938 250.127 120.126C250.127 121.285 249.856 122.319 249.313 123.228C248.785 124.137 248.045 124.856 247.091 125.384C246.153 125.897 245.075 126.154 243.857 126.154ZM243.857 123.8C244.532 123.8 245.133 123.653 245.661 123.36C246.189 123.067 246.6 122.641 246.893 122.084C247.201 121.527 247.355 120.874 247.355 120.126C247.355 119.363 247.201 118.711 246.893 118.168C246.6 117.611 246.189 117.185 245.661 116.892C245.133 116.599 244.539 116.452 243.879 116.452C243.205 116.452 242.603 116.599 242.075 116.892C241.562 117.185 241.151 117.611 240.843 118.168C240.535 118.711 240.381 119.363 240.381 120.126C240.381 120.874 240.535 121.527 240.843 122.084C241.151 122.641 241.562 123.067 242.075 123.36C242.603 123.653 243.197 123.8 243.857 123.8Z" fill="#0E497E"/>
</g>
</g>
</g>
<defs>
<filter id="filter0_dd_128_1066" x="0" y="0" width="406" height="256" filterUnits="userSpaceOnUse" color-interpolation-filters="sRGB">
<feFlood flood-opacity="0" result="BackgroundImageFix"/>
<feColorMatrix in="SourceAlpha" type="matrix" values="0 0 0 0 0 0 0 0 0 0 0 0 0 0 0 0 0 0 127 0" result="hardAlpha"/>
<feMorphology radius="4" operator="erode" in="SourceAlpha" result="effect1_dropShadow_128_1066"/>
<feOffset dy="10"/>
<feGaussianBlur stdDeviation="16"/>
<feColorMatrix type="matrix" values="0 0 0 0 0.0745098 0 0 0 0 0.0980392 0 0 0 0 0.152941 0 0 0 0.1 0"/>
<feBlend mode="normal" in2="BackgroundImageFix" result="effect1_dropShadow_128_1066"/>
<feColorMatrix in="SourceAlpha" type="matrix" values="0 0 0 0 0 0 0 0 0 0 0 0 0 0 0 0 0 0 127 0" result="hardAlpha"/>
<feMorphology radius="6" operator="erode" in="SourceAlpha" result="effect2_dropShadow_128_1066"/>
<feOffset dy="6"/>
<feGaussianBlur stdDeviation="7"/>
<feColorMatrix type="matrix" values="0 0 0 0 0.0745098 0 0 0 0 0.0980392 0 0 0 0 0.152941 0 0 0 0.12 0"/>
<feBlend mode="normal" in2="effect1_dropShadow_128_1066" result="effect2_dropShadow_128_1066"/>
<feBlend mode="normal" in="SourceGraphic" in2="effect2_dropShadow_128_1066" result="shape"/>
</filter>
<filter id="filter1_d_128_1066" x="324" y="32" width="40" height="40" filterUnits="userSpaceOnUse" color-interpolation-filters="sRGB">
<feFlood flood-opacity="0" result="BackgroundImageFix"/>
<feColorMatrix in="SourceAlpha" type="matrix" values="0 0 0 0 0 0 0 0 0 0 0 0 0 0 0 0 0 0 127 0" result="hardAlpha"/>
<feOffset dy="4"/>
<feGaussianBlur stdDeviation="2"/>
<feComposite in2="hardAlpha" operator="out"/>
<feColorMatrix type="matrix" values="0 0 0 0 0.133333 0 0 0 0 0.152941 0 0 0 0 0.164706 0 0 0 0.15 0"/>
<feBlend mode="normal" in2="BackgroundImageFix" result="effect1_dropShadow_128_1066"/>
<feBlend mode="normal" in="SourceGraphic" in2="effect1_dropShadow_128_1066" result="shape"/>
</filter>
<filter id="filter2_d_128_1066" x="111" y="92" width="184" height="61" filterUnits="userSpaceOnUse" color-interpolation-filters="sRGB">
<feFlood flood-opacity="0" result="BackgroundImageFix"/>
<feColorMatrix in="SourceAlpha" type="matrix" values="0 0 0 0 0 0 0 0 0 0 0 0 0 0 0 0 0 0 127 0" result="hardAlpha"/>
<feOffset dy="4"/>
<feGaussianBlur stdDeviation="2"/>
<feComposite in2="hardAlpha" operator="out"/>
<feColorMatrix type="matrix" values="0 0 0 0 0.133333 0 0 0 0 0.152941 0 0 0 0 0.164706 0 0 0 0.15 0"/>
<feBlend mode="normal" in2="BackgroundImageFix" result="effect1_dropShadow_128_1066"/>
<feBlend mode="normal" in="SourceGraphic" in2="effect1_dropShadow_128_1066" result="shape"/>
</filter>
<linearGradient id="paint0_linear_128_1066" x1="203" y1="81.5" x2="203" y2="241.5" gradientUnits="userSpaceOnUse">
<stop stop-color="#E6EFD8"/>
<stop offset="1" stop-color="#5B7A36"/>
</linearGradient>
<clipPath id="clip0_128_1066">
<rect x="28" y="18" width="350" height="200" rx="16" fill="white"/>
</clipPath>
</defs>
</svg>
